<?xml version="1.0" encoding="UTF-8"?>
<svg width="1577px" height="1577px" viewBox="0 0 1577 1577" version="1.1" xmlns="http://www.w3.org/2000/svg" xmlns:xlink="http://www.w3.org/1999/xlink">
    <!-- Generator: Sketch 48.2 (47327) - http://www.bohemiancoding.com/sketch -->
    <title>Artboard</title>
    <desc>Created with Sketch.</desc>
    <defs></defs>
    <g id="Page-1" stroke="none" stroke-width="1" fill="none" fill-rule="evenodd">
        <circle id="Oval-4" stroke="#000000" stroke-width="50" fill="#FFFFFF" transform="translate(788.500000, 762.500000) rotate(-225.000000) translate(-788.500000, -762.500000) " cx="788.5" cy="762.5" r="707.5"></circle>
        <g id="Artboard">
            <g id="Group-4" transform="translate(788.238816, 761.238816) rotate(-225.000000) translate(-788.238816, -761.238816) translate(138.238816, 111.238816)" fill="#000000">
                <path d="M650,1000 L650,1100 L180.957219,1100 C151.575852,1069.3832 125.163135,1035.89563 102.181811,1000.00003 L650,1000 Z M650,1300 C522.591597,1300 403.744927,1263.34286 303.43141,1200 L650,1200 L650,1300 Z M650,800 L650,900 L49.8163349,900 C36.4256939,867.889682 25.5368157,834.475188 17.3931839,800 L650,800 Z M650,600 L650,700 L1.89448167,700 C0.639146302,683.497919 0,666.8236 0,650 C0,633.1764 0.639146302,616.502081 1.89448167,600 L650,600 Z M650,400 L650,500 L17.3931839,500 C25.5368157,465.524812 36.4256939,432.110318 49.8163349,400 L650,400 Z M650,200 L650,300 L102.181791,300 C125.163117,264.104396 151.575838,230.616818 180.957219,200 L650,200 Z M650,9.9475983e-14 L650,100 L303.43141,100 C403.744932,36.6571381 522.5916,0 650,0 Z" id="Combined-Shape"></path>
                <path d="M650,1300 L650,0 C666.8236,0 683.497919,0.639146302 700,1.89448167 L700,1298.10552 C683.497919,1299.36085 666.8236,1300 650,1300 Z M1100.00001,1119.04277 C1069.3832,1148.42415 1035.89563,1174.83686 1000.00003,1197.81819 L1000,102.181791 C1035.89563,125.163135 1069.3832,151.575852 1100.00001,180.957228 L1100,1119.04278 Z M1200,996.56859 L1200,303.43141 C1263.34286,403.744927 1300,522.591597 1300,650 C1300,777.408403 1263.34286,896.255073 1200,996.56859 Z M900,1250.18367 C867.889682,1263.57431 834.475188,1274.46318 800,1282.60682 L800,17.3931839 C834.475188,25.5368157 867.889682,36.4256939 900,49.8163349 L900,1250.18367 Z" id="Combined-Shape"></path>
            </g>
            <circle id="Oval-4" stroke="#FFFFFF" stroke-width="50" transform="translate(781.992768, 768.401408) rotate(-225.000000) translate(-781.992768, -768.401408) " cx="781.992768" cy="768.401408" r="333.5"></circle>
            <circle id="Oval-4" stroke="#000000" stroke-width="50" fill="#FFFFFF" transform="translate(782.282089, 769.690729) rotate(-225.000000) translate(-782.282089, -769.690729) " cx="782.282089" cy="769.690729" r="283.5"></circle>
        </g>
    </g>
</svg>